<svg width="40" height="40" viewBox="0 0 40 40" fill="none" xmlns="http://www.w3.org/2000/svg">
<path d="M16.3055 7.11105C16.4074 7.31839 16.4746 7.54042 16.5048 7.76867L17.0616 16.0485V16.0485L17.3381 20.2102C17.3409 20.6381 17.4081 21.0633 17.5373 21.4721C17.8712 22.2651 18.6743 22.7691 19.5481 22.734L32.8627 21.8631C33.4392 21.8536 33.996 22.0692 34.4105 22.4626C34.7559 22.7903 34.9789 23.2191 35.0491 23.6803L35.0727 23.9604C34.5217 31.5898 28.9183 37.9533 21.3047 39.596C13.6911 41.2387 5.88373 37.7686 2.12142 31.0698C1.03677 29.1236 0.359301 26.9845 0.128764 24.778C0.0324572 24.1248 -0.00994903 23.465 0.00195845 22.8051C-0.0099319 14.6255 5.81494 7.55391 13.9687 5.84913C14.95 5.69633 15.9121 6.21584 16.3055 7.11105Z" fill="white"/>
<path opacity="0.4" d="M21.74 0.00163837C30.8598 0.233653 38.5246 6.79158 40 15.6246L39.9859 15.6898V15.6898L39.9457 15.7845L39.9513 16.0447C39.9304 16.3894 39.7973 16.7211 39.5679 16.989C39.329 17.268 39.0026 17.4581 38.6432 17.5318L38.424 17.5619L23.0624 18.5572C22.5515 18.6076 22.0427 18.4428 21.6627 18.1039C21.346 17.8215 21.1436 17.4402 21.0864 17.0294L20.0553 1.69012C20.0374 1.63826 20.0374 1.58203 20.0553 1.53016C20.0694 1.10734 20.2555 0.70768 20.5721 0.42046C20.8887 0.13324 21.3093 -0.0176007 21.74 0.00163837Z" fill="white"/>
</svg>
