<svg width="40" height="40" viewBox="0 0 40 40" fill="none" xmlns="http://www.w3.org/2000/svg">
<rect width="40" height="40" fill="#E5E5E5"/>
<rect width="1440" height="1508" transform="translate(-304 -1359)" fill="#F7F8FB"/>
<rect x="-40" y="-341" width="760" height="421" rx="8" fill="white"/>
<rect x="-16" y="-13" width="712" height="66" rx="8" fill="#F7F8FB"/>
<circle cx="20" cy="20" r="20" fill="#FFC405"/>
<path fill-rule="evenodd" clip-rule="evenodd" d="M18.7044 11.519C18.034 11.519 17.4637 11.9848 17.3037 12.6126H22.6863C22.5263 11.9848 21.956 11.519 21.2856 11.519H18.7044ZM24.2071 12.6126H26.1881C28.2891 12.6126 30 14.3443 30 16.4709C30 16.4709 29.94 17.3711 29.92 18.6248C29.918 18.724 29.8699 18.8212 29.7909 18.88C29.3097 19.2354 28.8694 19.5291 28.8294 19.5493C27.1686 20.6632 25.2386 21.447 23.1826 21.8369C23.0485 21.8632 22.9165 21.7934 22.8484 21.6739C22.2721 20.6754 21.1956 20.0253 19.995 20.0253C18.8024 20.0253 17.7159 20.6683 17.1226 21.6678C17.0535 21.7853 16.9235 21.8531 16.7904 21.8278C14.7514 21.4369 12.8214 20.6541 11.1706 19.5594L10.2101 18.8911C10.1301 18.8405 10.08 18.7493 10.08 18.6481C10.05 18.1316 10 16.4709 10 16.4709C10 14.3443 11.7109 12.6126 13.8119 12.6126H15.7829C15.973 11.1443 17.2036 10 18.7044 10H21.2856C22.7864 10 24.017 11.1443 24.2071 12.6126ZM29.6598 20.8152L29.6198 20.8355C27.5988 22.1924 25.1676 23.0937 22.6163 23.4684C22.2561 23.519 21.8959 23.2861 21.7959 22.9216C21.5758 22.0912 20.8654 21.5443 20.015 21.5443H20.005H19.985C19.1346 21.5443 18.4242 22.0912 18.2041 22.9216C18.1041 23.2861 17.7439 23.519 17.3837 23.4684C14.8324 23.0937 12.4012 22.1924 10.3802 20.8355C10.3702 20.8254 10.2701 20.7646 10.1901 20.8152C10.1001 20.8659 10.1001 20.9874 10.1001 20.9874L10.1701 26.1519C10.1701 28.2785 11.8709 30 13.972 30H26.018C28.1191 30 29.8199 28.2785 29.8199 26.1519L29.9 20.9874C29.9 20.9874 29.9 20.8659 29.8099 20.8152C29.7599 20.7849 29.6999 20.795 29.6598 20.8152ZM20.7454 25.0583C20.7454 25.4836 20.4152 25.8177 19.995 25.8177C19.5848 25.8177 19.2446 25.4836 19.2446 25.0583V23.7519C19.2446 23.3367 19.5848 22.9924 19.995 22.9924C20.4152 22.9924 20.7454 23.3367 20.7454 23.7519V25.0583Z" fill="white"/>
</svg>
