<svg width="40" height="40" viewBox="0 0 40 40" fill="none" xmlns="http://www.w3.org/2000/svg">
<rect width="40" height="40" fill="#E5E5E5"/>
<rect width="1440" height="1508" transform="translate(-304 -1113)" fill="#F7F8FB"/>
<rect x="-40" y="-95" width="760" height="421" rx="8" fill="white"/>
<rect x="-16" y="-13" width="712" height="66" rx="8" fill="#F7F8FB"/>
<circle cx="20" cy="20" r="20" fill="#FF5668"/>
<path fill-rule="evenodd" clip-rule="evenodd" d="M22.1213 19.2331H24.8891C25.3088 19.2331 25.6386 18.8861 25.6386 18.4677C25.6386 18.0391 25.3088 17.7024 24.8891 17.7024H22.1213C21.7016 17.7024 21.3719 18.0391 21.3719 18.4677C21.3719 18.8861 21.7016 19.2331 22.1213 19.2331ZM28.1766 13.9275C28.7861 13.9275 29.1858 14.1418 29.5855 14.6112C29.9852 15.0807 30.0551 15.7542 29.9652 16.3655L29.0159 23.06C28.8361 24.3469 27.7569 25.2949 26.4879 25.2949H15.5864C14.2574 25.2949 13.1583 24.255 13.0484 22.908L12.1291 11.7834L10.6203 11.5181C10.2206 11.4466 9.94079 11.0486 10.0107 10.6404C10.0807 10.223 10.4704 9.94649 10.8801 10.0087L13.2632 10.3751C13.6029 10.4374 13.8527 10.7221 13.8827 11.069L14.0726 13.355C14.1025 13.6826 14.3623 13.9275 14.6821 13.9275H28.1766ZM15.4263 26.9079C14.587 26.9079 13.9075 27.6018 13.9075 28.459C13.9075 29.3061 14.587 30 15.4263 30C16.2557 30 16.9351 29.3061 16.9351 28.459C16.9351 27.6018 16.2557 26.9079 15.4263 26.9079ZM26.6676 26.9079C25.8282 26.9079 25.1487 27.6018 25.1487 28.459C25.1487 29.3061 25.8282 30 26.6676 30C27.4969 30 28.1764 29.3061 28.1764 28.459C28.1764 27.6018 27.4969 26.9079 26.6676 26.9079Z" fill="white"/>
</svg>
