<svg width="16" height="17" viewBox="0 0 16 17" fill="none" xmlns="http://www.w3.org/2000/svg">
<path fill-rule="evenodd" clip-rule="evenodd" d="M10.0002 7.83334H6.00016C5.6335 7.83334 5.3335 8.13334 5.3335 8.5C5.3335 8.86667 5.6335 9.16667 6.00016 9.16667H10.0002C10.3668 9.16667 10.6668 8.86667 10.6668 8.5C10.6668 8.13334 10.3668 7.83334 10.0002 7.83334ZM8.00016 13.8333C5.0595 13.8333 2.66683 11.4407 2.66683 8.5C2.66683 5.55934 5.0595 3.16667 8.00016 3.16667C10.9408 3.16667 13.3335 5.55934 13.3335 8.5C13.3335 11.4407 10.9408 13.8333 8.00016 13.8333ZM8.00016 1.83334C4.32416 1.83334 1.3335 4.824 1.3335 8.5C1.3335 12.176 4.32416 15.1667 8.00016 15.1667C11.6762 15.1667 14.6668 12.176 14.6668 8.5C14.6668 4.824 11.6762 1.83334 8.00016 1.83334Z" fill="white"/>
<mask id="mask0" mask-type="alpha" maskUnits="userSpaceOnUse" x="1" y="1" width="14" height="15">
<path fill-rule="evenodd" clip-rule="evenodd" d="M10.0002 7.83334H6.00016C5.6335 7.83334 5.3335 8.13334 5.3335 8.5C5.3335 8.86667 5.6335 9.16667 6.00016 9.16667H10.0002C10.3668 9.16667 10.6668 8.86667 10.6668 8.5C10.6668 8.13334 10.3668 7.83334 10.0002 7.83334ZM8.00016 13.8333C5.0595 13.8333 2.66683 11.4407 2.66683 8.5C2.66683 5.55934 5.0595 3.16667 8.00016 3.16667C10.9408 3.16667 13.3335 5.55934 13.3335 8.5C13.3335 11.4407 10.9408 13.8333 8.00016 13.8333ZM8.00016 1.83334C4.32416 1.83334 1.3335 4.824 1.3335 8.5C1.3335 12.176 4.32416 15.1667 8.00016 15.1667C11.6762 15.1667 14.6668 12.176 14.6668 8.5C14.6668 4.824 11.6762 1.83334 8.00016 1.83334Z" fill="white"/>
</mask>
<g mask="url(#mask0)">
<rect y="0.5" width="16" height="16" fill="white"/>
</g>
</svg>
