<svg width="40" height="40" viewBox="0 0 40 40" fill="none" xmlns="http://www.w3.org/2000/svg">
<rect width="40" height="40" fill="#E5E5E5"/>
<rect width="1440" height="1508" transform="translate(-304 -1277)" fill="#F7F8FB"/>
<rect x="-40" y="-259" width="760" height="421" rx="8" fill="white"/>
<rect x="-16" y="-13" width="712" height="66" rx="8" fill="#F7F8FB"/>
<circle cx="20" cy="20" r="20" fill="#41D5E2"/>
<path fill-rule="evenodd" clip-rule="evenodd" d="M29.7872 18.539C29.6518 18.6706 29.4681 18.7457 29.2747 18.7457C28.559 18.7457 27.9787 19.3095 27.9787 19.9953C27.9787 20.6858 28.5522 21.2467 29.2611 21.2543C29.6605 21.258 30 21.5286 30 21.9166V24.3265C30 26.3549 28.3075 28 26.2186 28H23.0658C22.7398 28 22.4758 27.7435 22.4758 27.4269V25.3975C22.4758 25.0029 22.1567 24.6929 21.7505 24.6929C21.354 24.6929 21.0251 25.0029 21.0251 25.3975V27.4269C21.0251 27.7435 20.7611 28 20.4362 28H13.7814C11.7021 28 10 26.3558 10 24.3265V21.9166C10 21.5286 10.3395 21.258 10.7389 21.2543C11.4487 21.2467 12.0213 20.6858 12.0213 19.9953C12.0213 19.3282 11.4603 18.8209 10.7253 18.8209C10.5319 18.8209 10.3482 18.7457 10.2128 18.6142C10.0774 18.4827 10 18.3042 10 18.1163V15.6829C10 13.6573 11.706 12 13.7911 12H20.4362C20.7611 12 21.0251 12.2565 21.0251 12.5731V14.9783C21.0251 15.3635 21.354 15.6829 21.7505 15.6829C22.1567 15.6829 22.4758 15.3635 22.4758 14.9783V12.5731C22.4758 12.2565 22.7398 12 23.0658 12H26.2186C28.3075 12 30 13.6442 30 15.6735V18.0411C30 18.229 29.9226 18.4075 29.7872 18.539ZM21.7505 22.8702C22.1567 22.8702 22.4758 22.5508 22.4758 22.1656V18.4075C22.4758 18.0223 22.1567 17.7029 21.7505 17.7029C21.354 17.7029 21.0251 18.0223 21.0251 18.4075V22.1656C21.0251 22.5508 21.354 22.8702 21.7505 22.8702Z" fill="white"/>
</svg>
