<svg width="48" height="48" viewBox="0 0 48 48" fill="none" xmlns="http://www.w3.org/2000/svg">
<path d="M46.5387 27.14C41.496 19.4187 42.032 11.504 39.6014 7.78266C37.1707 4.06133 29.9267 -2.35467 12.8107 8.82533C-4.3053 20.0053 0.0480351 32.1587 2.7227 36.2507C15.24 55.4133 55.4707 40.8147 46.5387 27.14Z" fill="white"/>
<path d="M9.72401 23.4947L16.5053 30.276C17.0267 30.7973 17.8707 30.7973 18.3907 30.276L19.172 29.4947C19.6933 28.9733 19.6933 28.1293 19.172 27.6093L12.3907 20.828C11.8693 20.3067 11.0253 20.3067 10.5053 20.828L9.72401 21.6093C9.20267 22.1307 9.20267 22.9747 9.72401 23.4947Z" fill="#F3F3F1"/>
<path d="M30.276 16.5053L23.4947 9.72399C22.9733 9.20265 22.1293 9.20265 21.6093 9.72399L20.828 10.5053C20.3067 11.0267 20.3067 11.8707 20.828 12.3907L27.6093 19.172C28.1307 19.6933 28.9747 19.6933 29.4947 19.172L30.276 18.3907C30.7974 17.8693 30.7974 17.0253 30.276 16.5053Z" fill="#F3F3F1"/>
<path d="M9.39063 25.9427C8.8693 26.464 8.8693 27.308 9.39063 27.828L12.172 30.6093C12.6933 31.1307 13.5373 31.1307 14.0573 30.6093L15.448 29.2187L10.7813 24.552L9.39063 25.9427Z" fill="#FF8083"/>
<path d="M30.6093 12.172L27.828 9.39066C27.3066 8.86933 26.4626 8.86933 25.9426 9.39066L24.552 10.7813L29.2186 15.448L30.6093 14.0573C31.1306 13.536 31.1306 12.692 30.6093 12.172Z" fill="#FF8083"/>
<path d="M35 25C33.36 25 31.9466 25.9827 31.3333 27.3907C30.72 25.9827 29.3066 25 27.6666 25C25.46 25 23.6666 26.7867 23.6666 28.984C23.6666 33.3 31.3333 39 31.3333 39C31.3333 39 39 33.3 39 28.984C39 26.7867 37.2066 25 35 25Z" fill="#FF8083"/>
<path d="M18.7867 29.8933L18.3867 30.28C17.8667 30.8 17.0267 30.8 16.5067 30.28L9.72002 23.4933C9.20002 22.9733 9.20002 22.1333 9.72002 21.6133L10.5067 20.8267C11.0267 20.3067 11.8667 20.3067 12.3867 20.8267L12.7867 21.2267L12.3867 21.6133C11.8667 22.1333 11.8667 22.9733 12.3867 23.4933L18.7867 29.8933Z" fill="#D5DBE1"/>
<path d="M29.8933 18.7866L29.4933 19.1733C28.9733 19.6933 28.1333 19.6933 27.6133 19.1733L20.8267 12.3867C20.3067 11.8667 20.3067 11.0267 20.8267 10.5067L21.6133 9.71999C22.1333 9.19999 22.9733 9.19999 23.4933 9.71999L23.8933 10.12L23.4933 10.5067C22.9733 11.0267 22.9733 11.8667 23.4933 12.3867L29.8933 18.7866Z" fill="#D5DBE1"/>
<path d="M32.6667 37.92C31.8667 38.6 31.3334 39 31.3334 39C31.3334 39 23.6667 33.3067 23.6667 28.9867C23.6667 26.7867 25.4667 25 27.6667 25C28.1334 25 28.5734 25.08 28.9867 25.2267C27.44 25.7867 26.3334 27.2533 26.3334 28.9867C26.3334 32.16 30.48 36.08 32.6667 37.92Z" fill="#4D53E0"/>
<path d="M14.4534 30.2267L14.0534 30.6133C13.5334 31.1333 12.6934 31.1333 12.1734 30.6133L9.3867 27.8267C8.8667 27.3067 8.8667 26.4667 9.3867 25.9467L10.7867 24.5467L12.12 25.88L12.0534 25.9467C11.5334 26.4667 11.5334 27.3067 12.0534 27.8267L14.4534 30.2267Z" fill="#4D53E0"/>
<path d="M30.5467 14.12L29.2133 15.4533L24.5467 10.7867L25.9467 9.38668C26.4667 8.86668 27.3067 8.86668 27.8267 9.38668L28.2267 9.78668L27.2133 10.7867L30.5467 14.12Z" fill="#4D53E0"/>
<path d="M31.3334 40C31.124 40 30.9147 39.9333 30.7374 39.8027C29.9107 39.1893 22.6667 33.668 22.6667 28.984C22.6667 26.236 24.9094 24 27.6667 24C29.084 24 30.4054 24.5947 31.3334 25.592C32.2614 24.5947 33.5827 24 35 24C37.7573 24 40 26.236 40 28.984C40 33.668 32.756 39.188 31.9294 39.8013C31.752 39.9333 31.5427 40 31.3334 40ZM27.6667 26C26.012 26 24.6667 27.3387 24.6667 28.984C24.6667 31.84 29.0347 35.9053 31.3334 37.736C33.632 35.904 38 31.8333 38 28.984C38 27.3387 36.6547 26 35 26C33.804 26 32.724 26.7027 32.2494 27.7907C31.932 28.52 30.7334 28.52 30.416 27.7907C29.9427 26.7027 28.8627 26 27.6667 26Z" fill="#16365F"/>
<path d="M27.9155 10.6691L30.6629 7.92179L32.0771 9.336L29.3297 12.0833L27.9155 10.6691Z" fill="#16365F"/>
<path d="M15.2893 23.2927L23.2878 15.2942L24.7018 16.7082L16.7033 24.7067L15.2893 23.2927Z" fill="#16365F"/>
<path d="M7.91553 30.6638L10.6629 27.9164L12.0771 29.3307L9.32974 32.078L7.91553 30.6638Z" fill="#16365F"/>
<path d="M17.448 31.6667C16.824 31.6667 16.2387 31.4227 15.7973 30.9827L9.01733 24.2013C8.10799 23.2907 8.10799 21.812 9.01733 20.9013L9.79866 20.12C10.6787 19.24 12.216 19.2373 13.0987 20.12L19.88 26.9013C20.7893 27.812 20.7893 29.2907 19.88 30.2013L19.0987 30.9827C18.6573 31.424 18.0707 31.6667 17.448 31.6667ZM11.448 21.4373C11.396 21.4373 11.2973 21.4507 11.2133 21.5347L10.432 22.316C10.3027 22.4467 10.3027 22.6573 10.432 22.788L17.2133 29.5693C17.384 29.7387 17.5147 29.7387 17.6853 29.5693L18.4667 28.788C18.596 28.6573 18.596 28.4467 18.4667 28.316L11.6867 21.5347C11.5987 21.4507 11.5 21.4373 11.448 21.4373Z" fill="#16365F"/>
<path d="M13.1147 32C12.4907 32 11.9053 31.756 11.464 31.316L8.68401 28.5347C7.77468 27.624 7.77468 26.1453 8.68401 25.2347L10.0747 23.844L11.4893 25.2587L10.0987 26.6493C9.96935 26.78 9.96935 26.9907 10.0987 27.1213L12.88 29.9027C13.0507 30.072 13.1813 30.072 13.352 29.9027L14.7427 28.512L16.1573 29.9267L14.7667 31.3173C14.324 31.7573 13.7373 32 13.1147 32Z" fill="#16365F"/>
<path d="M28.552 20.5627C27.9293 20.5627 27.3427 20.32 26.9027 19.8787L20.1213 13.0973C19.212 12.1867 19.212 10.708 20.1213 9.79734L20.9027 9.016C21.7853 8.13334 23.3227 8.13734 24.2027 9.016L30.9827 15.7973C31.892 16.708 31.892 18.1867 30.9827 19.0973L30.2013 19.8787C29.7613 20.3187 29.176 20.5627 28.552 20.5627ZM22.552 10.3333C22.5 10.3333 22.4013 10.3467 22.316 10.4307L21.5347 11.212C21.4053 11.3427 21.4053 11.5533 21.5347 11.684L28.3147 18.4653C28.4853 18.6347 28.616 18.6347 28.7853 18.4653L29.5667 17.684C29.696 17.5533 29.696 17.3427 29.5667 17.212L22.7853 10.4307C22.7027 10.3467 22.604 10.3333 22.552 10.3333Z" fill="#16365F"/>
<path d="M29.9253 16.1547L28.5106 14.74L29.9013 13.3493C30.0306 13.2187 30.0306 13.008 29.9013 12.8773L27.12 10.096C26.9493 9.92666 26.8186 9.92666 26.648 10.096L25.2573 11.4867L23.8427 10.072L25.2333 8.68133C26.116 7.79999 27.652 7.80266 28.5333 8.68133L31.3133 11.4627C32.2226 12.3733 32.2226 13.852 31.3133 14.7627L29.9253 16.1547Z" fill="#16365F"/>
<path d="M9.98615 14.5148L11.8718 12.6291L12.8146 13.572L10.929 15.4576L9.98615 14.5148Z" fill="#FFCA41"/>
<path d="M15.4075 9.09432L17.2931 7.2087L18.2359 8.15151L16.3503 10.0371L15.4075 9.09432Z" fill="#FFCA41"/>
<path d="M9.75037 8.1514L10.6932 7.20859L12.5788 9.09421L11.636 10.037L9.75037 8.1514Z" fill="#FFCA41"/>
</svg>
