<svg width="16" height="17" viewBox="0 0 16 17" fill="none" xmlns="http://www.w3.org/2000/svg">
<path fill-rule="evenodd" clip-rule="evenodd" d="M7.3335 5.83333C7.3335 5.46533 7.63216 5.16667 8.00016 5.16667C8.36816 5.16667 8.66683 5.46533 8.66683 5.83333V9.16667C8.66683 9.53467 8.36816 9.83333 8.00016 9.83333C7.63216 9.83333 7.3335 9.53467 7.3335 9.16667V5.83333ZM7.3335 11.1667C7.3335 10.7987 7.63216 10.5 8.00016 10.5C8.36816 10.5 8.66683 10.7987 8.66683 11.1667C8.66683 11.5347 8.36816 11.8333 8.00016 11.8333C7.63216 11.8333 7.3335 11.5347 7.3335 11.1667ZM8.00016 13.8333C5.0595 13.8333 2.66683 11.4407 2.66683 8.5C2.66683 5.55933 5.0595 3.16667 8.00016 3.16667C10.9408 3.16667 13.3335 5.55933 13.3335 8.5C13.3335 11.4407 10.9408 13.8333 8.00016 13.8333M8.00016 1.83333C4.31816 1.83333 1.3335 4.818 1.3335 8.5C1.3335 12.182 4.31816 15.1667 8.00016 15.1667C11.6822 15.1667 14.6668 12.182 14.6668 8.5C14.6668 4.818 11.6822 1.83333 8.00016 1.83333" fill="white"/>
<mask id="mask0" mask-type="alpha" maskUnits="userSpaceOnUse" x="1" y="1" width="14" height="15">
<path fill-rule="evenodd" clip-rule="evenodd" d="M7.3335 5.83333C7.3335 5.46533 7.63216 5.16667 8.00016 5.16667C8.36816 5.16667 8.66683 5.46533 8.66683 5.83333V9.16667C8.66683 9.53467 8.36816 9.83333 8.00016 9.83333C7.63216 9.83333 7.3335 9.53467 7.3335 9.16667V5.83333ZM7.3335 11.1667C7.3335 10.7987 7.63216 10.5 8.00016 10.5C8.36816 10.5 8.66683 10.7987 8.66683 11.1667C8.66683 11.5347 8.36816 11.8333 8.00016 11.8333C7.63216 11.8333 7.3335 11.5347 7.3335 11.1667ZM8.00016 13.8333C5.0595 13.8333 2.66683 11.4407 2.66683 8.5C2.66683 5.55933 5.0595 3.16667 8.00016 3.16667C10.9408 3.16667 13.3335 5.55933 13.3335 8.5C13.3335 11.4407 10.9408 13.8333 8.00016 13.8333M8.00016 1.83333C4.31816 1.83333 1.3335 4.818 1.3335 8.5C1.3335 12.182 4.31816 15.1667 8.00016 15.1667C11.6822 15.1667 14.6668 12.182 14.6668 8.5C14.6668 4.818 11.6822 1.83333 8.00016 1.83333" fill="white"/>
</mask>
<g mask="url(#mask0)">
<rect y="0.5" width="16" height="16" fill="white"/>
</g>
</svg>
