<svg width="40" height="40" viewBox="0 0 40 40" fill="none" xmlns="http://www.w3.org/2000/svg">
<rect width="40" height="40" fill="#E5E5E5"/>
<rect width="1440" height="1508" transform="translate(-304 -1195)" fill="#F7F8FB"/>
<rect x="-40" y="-177" width="760" height="421" rx="8" fill="white"/>
<rect x="-16" y="-13" width="712" height="66" rx="8" fill="#F7F8FB"/>
<circle cx="20" cy="20" r="20" fill="#4D53E0"/>
<path fill-rule="evenodd" clip-rule="evenodd" d="M23.164 14.0825C23.4791 14.0868 23.7949 14.0912 24.1119 14.0944C27.5172 14.0944 30 16.5222 30 19.8748V24.1811C30 27.5337 27.5172 29.9615 24.1119 29.9615C22.7478 29.9904 21.3837 30 20.0098 30C18.6359 30 17.2522 29.9904 15.8881 29.9615C12.4828 29.9615 10 27.5337 10 24.1811V19.8748C10 16.5222 12.4828 14.0944 15.8979 14.0944C17.1835 14.0751 18.4985 14.0559 19.8332 14.0559V13.8921C19.8332 13.2274 19.2738 12.6879 18.6065 12.6879H17.6349C16.526 12.6879 15.6232 11.8015 15.6232 10.7225C15.6232 10.3276 15.9568 10 16.3592 10C16.7713 10 17.0952 10.3276 17.0952 10.7225C17.0952 11.0116 17.3405 11.2428 17.6349 11.2428H18.6065C20.0883 11.2524 21.2954 12.4374 21.3052 13.8825V14.0655C21.9239 14.0655 22.5425 14.074 23.164 14.0825ZM18.8518 22.7457H17.8214V23.7669C17.8214 24.1618 17.4877 24.4894 17.0854 24.4894C16.6732 24.4894 16.3494 24.1618 16.3494 23.7669V22.7457H15.3091C14.9068 22.7457 14.5731 22.4277 14.5731 22.0231C14.5731 21.6281 14.9068 21.3006 15.3091 21.3006H16.3494V20.289C16.3494 19.894 16.6732 19.5665 17.0854 19.5665C17.4877 19.5665 17.8214 19.894 17.8214 20.289V21.3006H18.8518C19.2542 21.3006 19.5878 21.6281 19.5878 22.0231C19.5878 22.4277 19.2542 22.7457 18.8518 22.7457ZM23.0226 21.1175H23.1207C23.5231 21.1175 23.8567 20.7996 23.8567 20.395C23.8567 20 23.5231 19.6724 23.1207 19.6724H23.0226C22.6104 19.6724 22.2866 20 22.2866 20.395C22.2866 20.7996 22.6104 21.1175 23.0226 21.1175ZM24.7007 24.4316H24.7988C25.2012 24.4316 25.5348 24.1137 25.5348 23.7091C25.5348 23.3141 25.2012 22.9865 24.7988 22.9865H24.7007C24.2875 22.9865 23.9647 23.3141 23.9647 23.7091C23.9647 24.1137 24.2875 24.4316 24.7007 24.4316Z" fill="white"/>
</svg>
