<svg width="48" height="48" viewBox="0 0 48 48" fill="none" xmlns="http://www.w3.org/2000/svg">
<path d="M10.8187 7.41868C8.41201 16.3213 2.14668 21.188 0.986679 25.4787C-0.173321 29.7693 -0.142656 39.4453 19.5933 44.7813C39.3293 50.1173 45.5027 38.78 46.7773 34.06C52.752 11.964 15.0813 -8.34931 10.8187 7.41868Z" fill="white"/>
<path d="M5.53003 10.6493L7.41565 8.76368L8.35845 9.70648L6.47284 11.5921L5.53003 10.6493Z" fill="#FFCA41"/>
<path d="M0.107727 16.0707L1.99334 14.1851L2.93615 15.1279L1.05054 17.0135L0.107727 16.0707Z" fill="#FFCA41"/>
<path d="M0.108948 9.47L1.05176 8.52719L2.93737 10.4128L1.99457 11.3556L0.108948 9.47Z" fill="#FFCA41"/>
<path d="M5.5307 14.886L6.47351 13.9432L8.35913 15.8288L7.41632 16.7716L5.5307 14.886Z" fill="#FFCA41"/>
<path d="M40 43.7227C38.8973 43.7227 38 42.8253 38 41.7227C38 40.62 38.8973 39.7227 40 39.7227C41.1027 39.7227 42 40.62 42 41.7227C42 42.8253 41.1027 43.7227 40 43.7227ZM40 41.056C39.6333 41.056 39.3333 41.356 39.3333 41.7227C39.3333 42.0893 39.6333 42.3893 40 42.3893C40.3667 42.3893 40.6667 42.0893 40.6667 41.7227C40.6667 41.356 40.3667 41.056 40 41.056Z" fill="#FFCA41"/>
<path d="M24 25.3173C23.3213 24.8867 22.4213 24.652 21.248 24.652C19.3573 24.652 17.4787 25.552 17.4787 25.552C17.4787 25.552 15.6 24.652 13.7093 24.652C9.94 24.652 9 27.0907 9 30.9253C9 35.3867 12.796 38.9987 17.4787 38.9987C20.1 38.9987 22.448 37.864 24 36.0894V25.3173Z" fill="#F3F3F1"/>
<path d="M39 30.9293C39 35.3867 35.204 39 30.5213 39C25.8387 39 22.0427 35.3867 22.0427 30.9293C22.0427 27.088 22.9853 24.652 26.7533 24.652C28.6373 24.652 30.5213 25.5493 30.5213 25.5493C30.5213 25.5493 32.4053 24.652 34.2893 24.652C38.0573 24.652 39 27.088 39 30.9293Z" fill="#F3F3F1"/>
<path d="M20.328 10.3387C20.328 10.3387 20.5547 14.44 18.164 16.8307C15.7734 19.2213 11.672 18.9947 11.672 18.9947C11.672 18.9947 11.4454 14.8933 13.836 12.5027C16.2267 10.112 20.328 10.3387 20.328 10.3387Z" fill="#4D53E0"/>
<path d="M20.4786 25.552C20.4786 25.552 21.4853 25.0733 22.7626 24.8147C22.3173 24.7093 21.816 24.652 21.248 24.652C20.4373 24.652 19.6373 24.8187 18.9786 25.008C19.856 25.26 20.4786 25.552 20.4786 25.552Z" fill="#D5DBE1"/>
<path d="M12 30.9267C12 27.6587 12.7 25.42 15.2347 24.8254C14.752 24.7254 14.2333 24.6534 13.708 24.6534C9.93867 24.6534 9 27.092 9 30.9267C9 35.388 12.796 39 17.4787 39C17.9867 39 18.4787 38.9454 18.9627 38.864C15.004 38.1827 12 34.8934 12 30.9267Z" fill="#D5DBE1"/>
<path d="M33.5214 25.5494C33.5214 25.5494 34.508 25.084 35.764 24.8254C35.324 24.7227 34.8467 24.6534 34.2894 24.6534C33.48 24.6534 32.6814 24.82 32.0214 25.008C32.8987 25.2587 33.5214 25.5494 33.5214 25.5494Z" fill="#D5DBE1"/>
<path d="M25.044 30.9293C25.044 27.656 25.7453 25.4187 28.28 24.824C27.7973 24.724 27.2773 24.652 26.7547 24.652C22.9867 24.652 22.044 27.088 22.044 30.9293C22.044 35.3867 25.84 39 30.5227 39C31.036 39 31.5347 38.9494 32.0227 38.8667C28.056 38.1907 25.044 34.8987 25.044 30.9293Z" fill="#D5DBE1"/>
<path d="M16.836 12.5027C17.8427 11.496 19.152 10.956 20.332 10.6653C20.332 10.4627 20.3267 10.3387 20.3267 10.3387C20.3267 10.3387 16.2253 10.112 13.8347 12.5027C11.444 14.8933 11.6707 18.9947 11.6707 18.9947C11.6707 18.9947 13.0467 19.0667 14.6667 18.668C14.6707 17.6587 14.8467 14.492 16.836 12.5027Z" fill="#10DDDF"/>
<path d="M17.4773 40C12.2507 40 8 35.9293 8 30.9253C8 28.936 8 23.652 13.708 23.652C15.2547 23.652 16.76 24.1733 17.4773 24.4627C18.1947 24.172 19.7013 23.652 21.2467 23.652C22.5907 23.652 23.6653 23.92 24.536 24.4733L23.4627 26.1613C22.932 25.824 22.1853 25.652 21.2467 25.652C19.628 25.652 17.9267 26.4467 17.9093 26.4547C17.6373 26.584 17.3213 26.5867 17.0467 26.4547C17.0293 26.4467 15.34 25.652 13.708 25.652C11.3587 25.652 10 26.5147 10 30.9253C10 34.8267 13.3547 38 17.4773 38C19.716 38 21.8187 37.064 23.2467 35.432L24.752 36.7493C22.9453 38.8147 20.2933 40 17.4773 40Z" fill="#16365F"/>
<path d="M30.5227 40C25.296 40 21.044 35.9307 21.044 30.9293C21.044 28.9387 21.044 23.652 26.7547 23.652C28.296 23.652 29.8053 24.1733 30.5227 24.46C31.24 24.172 32.7493 23.652 34.2907 23.652C40 23.652 40 28.9387 40 30.9293C40 35.9307 35.7493 40 30.5227 40ZM26.7533 25.652C24.4027 25.652 23.0427 26.5147 23.0427 30.9293C23.0427 34.828 26.3987 38 30.5213 38C34.644 38 37.9987 34.828 37.9987 30.9293C37.9987 26.5147 36.6373 25.652 34.2893 25.652C32.6627 25.652 30.9667 26.4453 30.9493 26.4533C30.6787 26.5813 30.364 26.5813 30.092 26.4533C30.0773 26.4453 28.38 25.652 26.7533 25.652Z" fill="#16365F"/>
<path d="M31.5227 25.3053H29.5227C29.5227 18.2453 25.5147 10 14.2173 10V8C26.9894 8 31.5227 17.3213 31.5227 25.3053Z" fill="#16365F"/>
<path d="M18.4774 25.3053H16.4774C16.4774 20.8933 21.4374 13.8707 27.3134 13.8707V15.8707C22.7574 15.8693 18.4774 21.7547 18.4774 25.3053Z" fill="#16365F"/>
<path d="M11.968 20.0013C11.7693 20.0013 11.6453 19.9947 11.6173 19.9933C11.108 19.9653 10.7013 19.5587 10.6733 19.0493C10.6626 18.864 10.4546 14.4707 13.1293 11.796C15.8053 9.12132 20.1986 9.32666 20.3826 9.33999C20.892 9.36799 21.2986 9.77466 21.3266 10.284C21.3373 10.4693 21.5453 14.8627 18.8706 17.5373C16.5986 19.808 13.088 20.0013 11.968 20.0013ZM19.3053 11.3627C18.0706 11.4547 15.9306 11.8227 14.5426 13.2093C13.148 14.6053 12.784 16.7373 12.6933 17.9693C13.928 17.8773 16.068 17.5093 17.456 16.1227C18.852 14.728 19.216 12.5947 19.3053 11.3627Z" fill="#16365F"/>
</svg>
