<svg width="48" height="48" viewBox="0 0 48 48" fill="none" xmlns="http://www.w3.org/2000/svg">
<path d="M46.5706 27.4547C41.6466 19.6573 42.3053 11.7507 39.932 7.99333C37.5586 4.236 30.4146 -2.292 13.128 8.624C-4.1587 19.54 0.00796953 31.7573 2.61864 35.8907C14.84 55.244 55.2906 41.2653 46.5706 27.4547Z" fill="white"/>
<path d="M9.29425 5.87872L11.1799 3.9931L12.1227 4.93591L10.2371 6.82153L9.29425 5.87872Z" fill="#FF8083"/>
<path d="M3.87292 11.2992L5.75854 9.41355L6.70135 10.3564L4.81573 12.242L3.87292 11.2992Z" fill="#FF8083"/>
<path d="M3.87323 4.69943L4.81604 3.75662L6.70166 5.64224L5.75885 6.58505L3.87323 4.69943Z" fill="#FF8083"/>
<path d="M40 8.66665C38.8973 8.66665 38 7.76932 38 6.66665C38 5.56399 38.8973 4.66666 40 4.66666C41.1027 4.66666 42 5.56399 42 6.66665C42 7.76932 41.1027 8.66665 40 8.66665ZM40 5.99999C39.632 5.99999 39.3333 6.29865 39.3333 6.66665C39.3333 7.03465 39.632 7.33332 40 7.33332C40.368 7.33332 40.6667 7.03465 40.6667 6.66665C40.6667 6.29865 40.368 5.99999 40 5.99999Z" fill="#FF8083"/>
<path d="M19.444 19.4387C21.9602 19.4387 24 17.3989 24 14.8827C24 12.3665 21.9602 10.3267 19.444 10.3267C16.9278 10.3267 14.888 12.3665 14.888 14.8827C14.888 17.3989 16.9278 19.4387 19.444 19.4387Z" fill="#F8B82E"/>
<path d="M28.556 19.4387C31.0722 19.4387 33.112 17.3989 33.112 14.8827C33.112 12.3665 31.0722 10.3267 28.556 10.3267C26.0398 10.3267 24 12.3665 24 14.8827C24 17.3989 26.0398 19.4387 28.556 19.4387Z" fill="#F8B82E"/>
<path d="M36.544 25.66C37.2346 24.8613 37.6666 23.8333 37.6666 22.696C37.6666 20.18 35.6266 18.14 33.1106 18.14C30.5946 18.14 28.5546 20.18 28.5546 22.696C28.5546 23.8347 28.9866 24.8627 29.6773 25.66H36.544Z" fill="#F8B82E"/>
<path d="M27.4333 25.66C28.124 24.8613 28.556 23.8333 28.556 22.696C28.556 20.18 26.516 18.14 24 18.14C21.484 18.14 19.444 20.18 19.444 22.696C19.444 23.8347 19.876 24.8627 20.5666 25.66H27.4333Z" fill="#F8B82E"/>
<path d="M18.3226 25.656C19.0133 24.8573 19.4453 23.8293 19.4453 22.692C19.4453 20.176 17.4053 18.136 14.8893 18.136C12.3733 18.136 10.3333 20.176 10.3333 22.692C10.3333 23.8306 10.7653 24.8573 11.456 25.656H18.3226Z" fill="#F8B82E"/>
<path d="M10.3333 25.66V26.3267C10.6666 33.38 16.6666 38.9933 24 38.9933C31.3333 38.9933 37.3333 33.38 37.6666 26.3267V25.66H10.3333Z" fill="#F3F3F1"/>
<path d="M17.8893 14.8827C17.8893 12.8947 19.1693 11.2227 20.9453 10.6C20.4733 10.4347 19.9733 10.3267 19.4453 10.3267C16.9293 10.3267 14.8893 12.3667 14.8893 14.8827C14.8893 17.3987 16.9293 19.4387 19.4453 19.4387C19.9733 19.4387 20.4733 19.3307 20.9453 19.1653C19.1693 18.5427 17.8893 16.8693 17.8893 14.8827Z" fill="#10DDDF"/>
<path d="M27 14.8827C27 12.8947 28.2813 11.2227 30.056 10.6C29.584 10.4347 29.084 10.3267 28.556 10.3267C26.04 10.3267 24 12.3667 24 14.8827C24 17.3987 26.04 19.4387 28.556 19.4387C29.084 19.4387 29.584 19.3307 30.056 19.1653C28.2813 18.5427 27 16.8693 27 14.8827Z" fill="#10DDDF"/>
<path d="M34.6106 18.4133C34.1386 18.248 33.6386 18.14 33.1106 18.14C30.5946 18.14 28.5546 20.18 28.5546 22.696C28.5546 23.8347 28.9866 24.8627 29.6773 25.66H32.6773C31.9866 24.8613 31.5546 23.8333 31.5546 22.696C31.556 20.708 32.836 19.036 34.6106 18.4133Z" fill="#10DDDF"/>
<path d="M25.5 18.4133C25.028 18.248 24.528 18.14 24 18.14C21.484 18.14 19.444 20.18 19.444 22.696C19.444 23.8347 19.876 24.8627 20.5666 25.66H23.5666C22.876 24.8613 22.444 23.8333 22.444 22.696C22.444 20.708 23.7253 19.036 25.5 18.4133Z" fill="#10DDDF"/>
<path d="M16.3893 18.4093C15.9173 18.244 15.4173 18.136 14.8893 18.136C12.3733 18.136 10.3333 20.176 10.3333 22.692C10.3333 23.8306 10.7653 24.8573 11.456 25.656H14.456C13.7653 24.8573 13.3333 23.8293 13.3333 22.692C13.3333 20.704 14.6147 19.032 16.3893 18.4093Z" fill="#10DDDF"/>
<path d="M13.3333 26.3267V25.66H10.3333V26.3267C10.6666 33.38 16.6667 38.9933 24 38.9933C24.508 38.9933 25.0067 38.96 25.5 38.908C18.8653 38.204 13.644 32.892 13.3333 26.3267Z" fill="#D5DBE1"/>
<path d="M24 39.9933C16.1374 39.9933 9.69471 34.012 9.33471 26.3733L9.33337 25.66H11.3334V26.3267C11.6427 32.848 17.2067 37.9933 24 37.9933C30.7934 37.9933 36.3574 32.848 36.668 26.28L36.6667 25.66H38.6667V26.3267C38.3054 34.012 31.8627 39.9933 24 39.9933Z" fill="#16365F"/>
<path d="M9 24.66H39V26.66H9V24.66Z" fill="#16365F"/>
<path d="M19.0693 26.3214L17.5707 24.9974C18.1387 24.3534 18.44 23.5534 18.44 22.6867C18.44 21.5947 17.9627 20.5934 17.1293 19.9387C17.1173 19.9294 17.096 19.9107 17.076 19.892C17.004 19.8494 16.9387 19.7987 16.88 19.7387L17.596 19.0094L17.9573 18.1027C18.216 18.2054 18.372 18.3614 18.4547 18.444C19.684 19.4 20.4413 20.9747 20.4413 22.6854C20.44 24.0494 19.9667 25.3067 19.0693 26.3214ZM17.2147 19.9614H17.216C17.216 19.9627 17.216 19.9614 17.2147 19.9614Z" fill="#16365F"/>
<path d="M10.704 26.3214C9.80671 25.3067 9.33337 24.0494 9.33337 22.6867C9.33337 19.628 11.828 17.14 14.8934 17.14C15.5667 17.14 16.2227 17.256 16.8454 17.4853C16.9067 17.5027 16.9654 17.524 17.02 17.552C17.124 17.604 17.2254 17.66 17.3294 17.7374L16.7387 18.5307L16.7454 19.54H16.732C16.5334 19.54 16.34 19.4814 16.176 19.372C15.768 19.2187 15.3374 19.1414 14.892 19.1414C12.9294 19.1414 11.332 20.732 11.332 22.688C11.332 23.556 11.6334 24.3547 12.2014 24.9987L10.704 26.3214Z" fill="#16365F"/>
<path d="M25.6786 19.448C25.5586 19.448 25.4266 19.4267 25.3146 19.384C24.4333 19.0547 23.5653 19.0547 22.684 19.384C22.572 19.4267 22.4533 19.448 22.3333 19.448L22.3253 18.8573L21.5373 17.74C21.696 17.6213 21.848 17.5613 21.9493 17.52C21.988 17.504 22.0266 17.492 22.0666 17.4813C23.3453 17.0213 24.66 17.024 25.94 17.484C25.9773 17.4933 26.0146 17.5053 26.0493 17.52C26.1506 17.56 26.3026 17.6213 26.4613 17.74L25.6786 18.7827V19.448Z" fill="#16365F"/>
<path d="M19.8307 26.3294C18.9213 25.3187 18.4413 24.0587 18.4413 22.6867C18.4413 20.9894 19.196 19.416 20.512 18.3707C20.608 18.2907 20.736 18.1854 20.9347 18.1054C21.0533 18.0574 21.18 18.0334 21.308 18.0334V19.02H22.3213L21.6867 19.6547L21.8253 19.88C20.9213 20.6 20.4413 21.6027 20.4413 22.6867C20.4413 23.5574 20.7453 24.3534 21.3187 24.992L19.8307 26.3294Z" fill="#16365F"/>
<path d="M28.1694 26.3294L26.6827 24.992C27.256 24.3534 27.56 23.5574 27.56 22.6867C27.56 21.6027 27.0814 20.6 26.244 19.936C26.2267 19.9214 26.2187 19.9147 26.22 19.9147C26.1414 19.872 26.068 19.82 26.004 19.7574L26.7027 19.0094L27.0654 18.1054C27.2627 18.1854 27.392 18.2907 27.468 18.3534C28.804 19.416 29.5587 20.9894 29.5587 22.6867C29.56 24.0587 29.08 25.3187 28.1694 26.3294ZM26.3187 19.96H26.32C26.32 19.9614 26.3187 19.96 26.3187 19.96Z" fill="#16365F"/>
<path d="M28.9307 26.3214C28.0347 25.3067 27.56 24.0494 27.56 22.6867C27.56 20.976 28.316 19.4014 29.636 18.3667C29.6293 18.3627 29.7853 18.2067 30.044 18.104L30.4053 19.012L31.1333 19.728C31.0747 19.7867 31.004 19.8427 30.9293 19.8894C30.9067 19.9107 30.884 19.9307 30.8707 19.9414C30.0373 20.596 29.56 21.5974 29.56 22.6894C29.56 23.5574 29.8613 24.356 30.4293 25L28.9307 26.3214Z" fill="#16365F"/>
<path d="M37.296 26.3214L35.7973 24.9974C36.3653 24.3534 36.6667 23.5534 36.6667 22.6867C36.6667 20.7307 35.0693 19.14 33.1067 19.14C32.6693 19.14 32.244 19.216 31.8413 19.364C31.6747 19.4774 31.4693 19.54 31.2667 19.54L31.26 18.5307L30.6707 17.7374C30.7747 17.66 30.876 17.604 30.98 17.552C31.0413 17.5213 31.104 17.4973 31.1707 17.48C31.7893 17.2547 32.44 17.14 33.108 17.14C36.1733 17.14 38.668 19.628 38.668 22.6867C38.6667 24.0494 38.1933 25.3067 37.296 26.3214Z" fill="#16365F"/>
<path d="M19.444 20.4374C16.38 20.4374 13.888 17.9454 13.888 14.8814C13.888 11.8173 16.38 9.32535 19.444 9.32535C22.5067 9.32535 25 11.8173 25 14.8814C25 17.9454 22.508 20.4374 19.444 20.4374ZM19.444 11.3267C17.4827 11.3267 15.888 12.9214 15.888 14.8827C15.888 16.844 17.4827 18.4387 19.444 18.4387C21.404 18.4387 23 16.844 23 14.8827C23 12.9214 21.4053 11.3267 19.444 11.3267Z" fill="#16365F"/>
<path d="M28.556 20.4374C25.4933 20.4374 23 17.9454 23 14.8814C23 11.8173 25.492 9.32535 28.556 9.32535C31.62 9.32535 34.112 11.8173 34.112 14.8814C34.112 17.9454 31.6187 20.4374 28.556 20.4374ZM28.556 11.3267C26.596 11.3267 25 12.9214 25 14.8827C25 16.844 26.5947 18.4387 28.556 18.4387C30.5173 18.4387 32.112 16.844 32.112 14.8827C32.112 12.9214 30.516 11.3267 28.556 11.3267Z" fill="#16365F"/>
</svg>
