<svg width="48" height="48" viewBox="0 0 48 48" fill="none" xmlns="http://www.w3.org/2000/svg">
<path d="M10.8187 7.41865C8.41201 16.3213 2.14668 21.188 0.986679 25.4787C-0.173321 29.7693 -0.142656 39.4453 19.5933 44.7813C39.3293 50.1173 45.5027 38.78 46.7773 34.06C52.752 11.964 15.0813 -8.34935 10.8187 7.41865Z" fill="white"/>
<path d="M13.1273 4.72745L15.0129 2.84183L15.9557 3.78464L14.0701 5.67026L13.1273 4.72745Z" fill="#FF8083"/>
<path d="M7.70691 10.1488L9.59253 8.26319L10.5353 9.206L8.64972 11.0916L7.70691 10.1488Z" fill="#FF8083"/>
<path d="M7.7085 3.55042L8.65131 2.60761L10.5369 4.49322L9.59412 5.43603L7.7085 3.55042Z" fill="#FF8083"/>
<path d="M5.70264 35.6667C4.59997 35.6667 3.70264 34.7694 3.70264 33.6667C3.70264 32.564 4.59997 31.6667 5.70264 31.6667C6.8053 31.6667 7.70263 32.564 7.70263 33.6667C7.70263 34.7694 6.8053 35.6667 5.70264 35.6667ZM5.70264 33C5.33464 33 5.03597 33.3 5.03597 33.6667C5.03597 34.0334 5.33464 34.3334 5.70264 34.3334C6.07063 34.3334 6.3693 34.0334 6.3693 33.6667C6.3693 33.3 6.07063 33 5.70264 33Z" fill="#FF8083"/>
<path d="M36.1333 18.8533C37.0666 19.5867 37.6666 20.72 37.6666 22V35C37.6666 37.2133 35.88 39 33.6666 39H14.3333C12.12 39 10.3333 37.2133 10.3333 35V22C10.3333 20.72 10.9333 19.5867 11.8666 18.8667L36.1333 18.8533Z" fill="#F3F3F1"/>
<path d="M33.6667 14.3333H14.3613V10.3333C14.3613 9.59733 14.9587 9 15.6947 9H32.3333C33.0693 9 33.6667 9.59733 33.6667 10.3333V14.3333Z" fill="#FFCA41"/>
<path d="M33.6666 14.3333H14.3613L10.3333 18.392V18.4213C12.1786 18.5947 12.348 19.728 14.5346 19.728C16.8906 19.728 16.8906 18.3947 19.26 18.3947C21.6293 18.3947 21.6306 19.728 23.9853 19.728C26.3546 19.728 26.3546 18.3947 28.7106 18.3947C31.0813 18.3947 31.0813 19.728 33.4506 19.728C35.636 19.728 35.8066 18.5947 37.6653 18.4213V18.392L33.6666 14.3333Z" fill="#FFCA41"/>
<path d="M10.3333 25H37.6666V33.6667H10.3333V25Z" fill="#FFCA41"/>
<path d="M13.3333 35V22C13.3333 20.72 13.9333 19.5867 14.8666 18.8667L36.1346 18.8547L36.1333 18.8533L11.8666 18.8667C10.9333 19.5867 10.3333 20.72 10.3333 22V35C10.3333 37.2133 12.12 39 14.3333 39H17.3333C15.12 39 13.3333 37.2133 13.3333 35Z" fill="#D5DBE1"/>
<path d="M18.6947 9H15.6947C14.9587 9 14.3613 9.59733 14.3613 10.3333V14.3333H17.3613V10.3333C17.3613 9.59733 17.9587 9 18.6947 9Z" fill="#F8B82E"/>
<path d="M13.3333 18.42V18.3907L17.3613 14.332H14.3613L10.3333 18.392V18.4213C12.1786 18.5947 12.348 19.728 14.5346 19.728C15.1813 19.728 15.644 19.624 16.0333 19.4773C15.1093 19.1333 14.6306 18.5427 13.3333 18.42Z" fill="#F8B82E"/>
<path d="M10.3333 25H13.3333V33.6667H10.3333V25Z" fill="#F8B82E"/>
<path d="M33.6667 15.3333H14.3614C13.8094 15.3333 13.3614 14.8853 13.3614 14.3333V10.3333C13.3614 9.04667 14.4081 8 15.6947 8H32.3334C33.6201 8 34.6667 9.04667 34.6667 10.3333V14.3333C34.6667 14.8853 34.2187 15.3333 33.6667 15.3333ZM15.3614 13.3333H32.6667V10.3333C32.6667 10.1493 32.5174 10 32.3334 10H15.6947C15.5107 10 15.3614 10.1493 15.3614 10.3333V13.3333Z" fill="#16365F"/>
<path d="M32.9478 15.0308L34.3719 13.6266L38.3729 17.6846L36.9487 19.0888L32.9478 15.0308Z" fill="#16365F"/>
<path d="M9.63257 17.6929L13.6642 13.6326L15.0842 15.0426L11.0526 19.1029L9.63257 17.6929Z" fill="#16365F"/>
<path d="M33.4521 20.728C32.0054 20.728 31.2214 20.2867 30.5907 19.932C30.0347 19.62 29.6334 19.3947 28.7107 19.3947C27.7974 19.3947 27.3987 19.62 26.8481 19.9307C26.2187 20.2853 25.4347 20.728 23.9854 20.728C22.5467 20.728 21.7667 20.288 21.1401 19.9333C20.5854 19.6213 20.1841 19.3947 19.2601 19.3947C18.3361 19.3947 17.9347 19.6213 17.3814 19.9333C16.7534 20.288 15.9734 20.728 14.5347 20.728C13.0827 20.728 12.3001 20.2853 11.6721 19.9293C11.2241 19.676 10.8694 19.4747 10.2414 19.416L10.4294 17.424C11.4841 17.5227 12.1347 17.892 12.6574 18.188C13.2107 18.5 13.6107 18.7267 14.5361 18.7267C15.4494 18.7267 15.8481 18.5013 16.4001 18.1907C17.0294 17.8347 17.8134 17.3933 19.2614 17.3933C20.7107 17.3933 21.4947 17.836 22.1241 18.1907C22.6761 18.5013 23.0734 18.7267 23.9867 18.7267C24.9107 18.7267 25.3121 18.5 25.8667 18.188C26.4934 17.8333 27.2734 17.3933 28.7121 17.3933C30.1587 17.3933 30.9427 17.8347 31.5721 18.1893C32.1281 18.5013 32.5294 18.7267 33.4521 18.7267C34.3761 18.7267 34.7761 18.5013 35.3307 18.1893C35.8574 17.892 36.5121 17.5227 37.5747 17.424L37.7601 19.416C37.1227 19.4747 36.7654 19.676 36.3134 19.932C35.6827 20.2867 34.9001 20.728 33.4521 20.728Z" fill="#16365F"/>
<path d="M33.6667 40H14.3334C11.576 40 9.33337 37.756 9.33337 35V22C9.33337 20.4493 10.0334 19.0187 11.256 18.076L12.4774 19.66C11.7507 20.22 11.3334 21.0733 11.3334 22V35C11.3334 36.6533 12.6787 38 14.3334 38H33.6667C35.3214 38 36.6667 36.6533 36.6667 35V22C36.6667 21.076 36.2467 20.2147 35.5147 19.6387L36.752 18.068C37.9694 19.0253 38.6667 20.4587 38.6667 22V35C38.6667 37.756 36.424 40 33.6667 40Z" fill="#16365F"/>
<path d="M10.3334 24H37.6667V26H10.3334V24Z" fill="#16365F"/>
<path d="M10.3334 32.6667H37.6667V34.6667H10.3334V32.6667Z" fill="#16365F"/>
</svg>
