<svg width="16" height="17" viewBox="0 0 16 17" fill="none" xmlns="http://www.w3.org/2000/svg">
<path fill-rule="evenodd" clip-rule="evenodd" d="M9.80323 6.09634L7.28056 9.409L6.1919 8.01834C5.96523 7.72767 5.54523 7.677 5.2559 7.90434C4.9659 8.131 4.91456 8.55034 5.1419 8.83967L6.76256 10.911C6.88923 11.0723 7.08256 11.1663 7.2879 11.1663H7.29256C7.49856 11.1657 7.69323 11.0683 7.8179 10.9037L10.8639 6.90367C11.0872 6.61034 11.0306 6.193 10.7372 5.96967C10.4432 5.74634 10.0259 5.80367 9.80323 6.09634M8.00016 13.8333C5.0595 13.8333 2.66683 11.4407 2.66683 8.5C2.66683 5.55934 5.0595 3.16667 8.00016 3.16667C10.9408 3.16667 13.3335 5.55934 13.3335 8.5C13.3335 11.4407 10.9408 13.8333 8.00016 13.8333M8.00016 1.83334C4.31816 1.83334 1.3335 4.81867 1.3335 8.5C1.3335 12.1813 4.31816 15.1667 8.00016 15.1667C11.6822 15.1667 14.6668 12.1813 14.6668 8.5C14.6668 4.81867 11.6822 1.83334 8.00016 1.83334" fill="white"/>
<mask id="mask0" mask-type="alpha" maskUnits="userSpaceOnUse" x="1" y="1" width="14" height="15">
<path fill-rule="evenodd" clip-rule="evenodd" d="M9.80323 6.09634L7.28056 9.409L6.1919 8.01834C5.96523 7.72767 5.54523 7.677 5.2559 7.90434C4.9659 8.131 4.91456 8.55034 5.1419 8.83967L6.76256 10.911C6.88923 11.0723 7.08256 11.1663 7.2879 11.1663H7.29256C7.49856 11.1657 7.69323 11.0683 7.8179 10.9037L10.8639 6.90367C11.0872 6.61034 11.0306 6.193 10.7372 5.96967C10.4432 5.74634 10.0259 5.80367 9.80323 6.09634M8.00016 13.8333C5.0595 13.8333 2.66683 11.4407 2.66683 8.5C2.66683 5.55934 5.0595 3.16667 8.00016 3.16667C10.9408 3.16667 13.3335 5.55934 13.3335 8.5C13.3335 11.4407 10.9408 13.8333 8.00016 13.8333M8.00016 1.83334C4.31816 1.83334 1.3335 4.81867 1.3335 8.5C1.3335 12.1813 4.31816 15.1667 8.00016 15.1667C11.6822 15.1667 14.6668 12.1813 14.6668 8.5C14.6668 4.81867 11.6822 1.83334 8.00016 1.83334" fill="white"/>
</mask>
<g mask="url(#mask0)">
<rect y="0.5" width="16" height="16" fill="white"/>
</g>
</svg>
