<svg width="48" height="48" viewBox="0 0 48 48" fill="none" xmlns="http://www.w3.org/2000/svg">
<path d="M11.4493 5.55599C20.672 5.55599 27.0053 0.778656 31.4493 0.778656C35.8933 0.778656 45.2267 3.33332 45.2267 23.7773C45.2267 44.2213 32.6707 47.2213 27.7827 47.2213C4.89332 47.2227 -4.88401 5.55599 11.4493 5.55599Z" fill="white"/>
<path d="M42.8866 8.17799L43.8294 7.23519L45.715 9.1208L44.7722 10.0636L42.8866 8.17799Z" fill="#F8B82E"/>
<path d="M37.4671 2.75838L38.4099 1.81557L40.2955 3.70119L39.3527 4.644L37.4671 2.75838Z" fill="#F8B82E"/>
<path d="M43.1272 3.70625L45.0128 1.82063L45.9557 2.76344L44.07 4.64906L43.1272 3.70625Z" fill="#F8B82E"/>
<path d="M13.748 27.6667C10.8267 28.5813 9 29.884 9 31.324C9 34.092 15.7173 36.3334 24 36.3334C25.5907 36.3334 27.1307 36.2454 28.5653 36.096V33.8293L33.652 35.1573C36.9253 34.2427 39 32.8653 39 31.3253C39 29.8853 37.1733 28.5827 34.252 27.668H13.748V27.6667Z" fill="#10DDDF"/>
<path d="M24 31C32.8987 30.696 37.5013 26.1387 37.8093 17.3293C28.9093 17.6333 24.3067 22.1893 24 31Z" fill="white"/>
<path d="M24 31C15.1013 30.696 10.4987 26.1387 10.1907 17.3293C19.0907 17.6333 23.6933 22.1893 24 31Z" fill="white"/>
<path d="M28.504 20.2507C28.2053 17.3893 26.708 14.528 24 11.6667C21.292 14.528 19.7947 17.3893 19.496 20.2507C19.496 20.2507 22.8533 23.8653 24 27.004C24 27.004 27.3467 20.004 28.504 20.2507Z" fill="white"/>
<path d="M25.4667 36.3067C24.9867 36.32 24.4933 36.3334 24 36.3334C15.72 36.3334 9 34.0933 9 31.32C9 29.88 10.8267 28.5867 13.7467 27.6667H16.7467C13.8267 28.5867 12 29.88 12 31.32C12 33.92 17.9067 36.0534 25.4667 36.3067Z" fill="#F8B82E"/>
<path d="M24 31C15.1067 30.6933 10.4933 26.1333 10.1866 17.3333C11.2533 17.3733 12.2533 17.4667 13.2 17.6267C13.5466 25.1867 17.1467 29.5467 23.9867 30.7067C23.9867 30.8 24 30.9066 24 31Z" fill="#C7D0D9"/>
<path d="M27.5093 20.3547C27.2627 17.988 26.084 15.572 24 13.1573C21.916 15.572 20.7373 17.988 20.4907 20.3547L18.5013 20.148C18.8213 17.0707 20.4267 13.9867 23.2733 10.98C23.6507 10.5813 24.3493 10.5813 24.7267 10.98C27.5733 13.9867 29.1787 17.0707 29.4987 20.148L27.5093 20.3547Z" fill="#16365F"/>
<path d="M24 32C23.736 32 23.48 31.8947 23.2933 31.7067C23.0973 31.5107 22.9907 31.2413 23 30.964C23.328 21.576 28.2987 16.652 37.7747 16.3293C38.044 16.3053 38.3187 16.4253 38.516 16.6213C38.7133 16.8173 38.8187 17.0867 38.8093 17.364C38.48 26.752 33.5107 31.676 24.0333 32C24.0227 32 24.012 32 24 32ZM36.7467 18.3907C29.4827 18.9653 25.648 22.7547 25.0627 29.9387C32.3267 29.364 36.1613 25.5733 36.7467 18.3907Z" fill="#16365F"/>
<path d="M24 32C23.988 32 23.9773 32 23.9666 32C14.4893 31.676 9.51998 26.752 9.19198 17.364C9.18264 17.0867 9.28798 16.8173 9.48531 16.6213C9.67998 16.4253 9.95064 16.3053 10.2266 16.3293C19.7026 16.652 24.6733 21.576 25.0013 30.964C25.0106 31.2413 24.9053 31.5107 24.708 31.7067C24.52 31.8947 24.264 32 24 32ZM11.2533 18.3907C11.8373 25.5733 15.672 29.364 22.9373 29.9387C22.3533 22.7547 18.5186 18.9653 11.2533 18.3907Z" fill="#16365F"/>
<path d="M24 37.3333C16.0493 37.3333 8 35.2693 8 31.324C8 29.4227 9.884 27.828 13.4493 26.7133L14.0453 28.6227C11.06 29.556 10 30.6613 10 31.324C10 32.9587 15.4547 35.3333 24 35.3333C25.1867 35.3333 26.3813 35.2827 27.5653 35.1853V33.8293C27.5653 33.52 27.708 33.2267 27.9533 33.0373C28.2 32.848 28.52 32.7813 28.8173 32.8613L33.64 34.12C36.6493 33.2373 38 32.0893 38 31.324C38 30.6613 36.94 29.556 33.9547 28.6213L34.5507 26.712C38.116 27.828 40 29.4213 40 31.324C40 33.3213 37.8413 35.024 33.9213 36.12C33.7493 36.168 33.572 36.1693 33.3987 36.124L29.564 35.124V36.096C29.564 36.608 29.1773 37.0373 28.668 37.0907C27.1267 37.2507 25.5547 37.3333 24 37.3333Z" fill="#16365F"/>
</svg>
