<svg width="12" height="12" viewBox="0 0 12 12" fill="none" xmlns="http://www.w3.org/2000/svg">
<path fill-rule="evenodd" clip-rule="evenodd" d="M4.93166 9C4.79366 9 4.66166 8.943 4.56716 8.8425L2.13566 6.253C1.94616 6.052 1.95666 5.7355 2.15766 5.5465C2.35916 5.3575 2.67566 5.3675 2.86416 5.5685L4.92666 7.764L9.13066 3.163C9.31766 2.9585 9.63366 2.945 9.83766 3.131C10.0412 3.317 10.0552 3.6335 9.86916 3.837L5.30066 8.837C5.20716 8.94 5.07416 8.999 4.93516 9H4.93166Z" fill="white"/>
<mask id="mask0" mask-type="alpha" maskUnits="userSpaceOnUse" x="2" y="3" width="8" height="6">
<path fill-rule="evenodd" clip-rule="evenodd" d="M4.93166 9C4.79366 9 4.66166 8.943 4.56716 8.8425L2.13566 6.253C1.94616 6.052 1.95666 5.7355 2.15766 5.5465C2.35916 5.3575 2.67566 5.3675 2.86416 5.5685L4.92666 7.764L9.13066 3.163C9.31766 2.9585 9.63366 2.945 9.83766 3.131C10.0412 3.317 10.0552 3.6335 9.86916 3.837L5.30066 8.837C5.20716 8.94 5.07416 8.999 4.93516 9H4.93166Z" fill="white"/>
</mask>
<g mask="url(#mask0)">
<rect width="12" height="12" fill="white"/>
</g>
</svg>
